<svg width="16" height="16" viewBox="0 0 16 16" fill="none" xmlns="http://www.w3.org/2000/svg">
<g clip-path="url(#clip0_54706_16531)">
<path d="M8 16C12.4183 16 16 12.4183 16 8C16 3.58172 12.4183 0 8 0C3.58172 0 0 3.58172 0 8C0 12.4183 3.58172 16 8 16Z" fill="#F0F0F0"/>
<path d="M0 8.00006C0 11.4398 2.171 14.3721 5.21741 15.5025V0.497681C2.171 1.62799 0 4.56037 0 8.00006Z" fill="#6DA544"/>
<path d="M16 8.00006C16 4.56037 13.829 1.62799 10.7826 0.497681V15.5025C13.829 14.3721 16 11.4398 16 8.00006Z" fill="#6DA544"/>
</g>
<defs>
<clipPath id="clip0_54706_16531">
<rect width="16" height="16" fill="white"/>
</clipPath>
</defs>
</svg>
